<svg xmlns="http://www.w3.org/2000/svg" width="27.49" height="27.49" viewBox="0 0 27.49 27.49">
  <g id="Group_18930" data-name="Group 18930" transform="translate(-700.929 -5674.51)">
    <path id="Path_2344" data-name="Path 2344" d="M81.305,27.274h0A13.529,13.529,0,1,1,94.834,13.745,13.529,13.529,0,0,1,81.305,27.274Z" transform="translate(633.369 5674.51)" fill="none" stroke="#fff" stroke-width="0.432"/>
    <path id="Path_2345" data-name="Path 2345" d="M80.541,7.589c1.756,0,1.964.007,2.658.038a3.614,3.614,0,0,1,1.221.227A2.18,2.18,0,0,1,85.669,9.1a3.665,3.665,0,0,1,.227,1.221c.031.693.038.9.038,2.658s-.007,1.964-.038,2.657a3.665,3.665,0,0,1-.227,1.221,2.171,2.171,0,0,1-1.248,1.248,3.614,3.614,0,0,1-1.221.227c-.694.031-.9.038-2.658.038s-1.964-.007-2.658-.038a3.62,3.62,0,0,1-1.221-.227,2.171,2.171,0,0,1-1.248-1.248,3.665,3.665,0,0,1-.227-1.221c-.031-.693-.038-.9-.038-2.657s.007-1.965.038-2.658A3.665,3.665,0,0,1,75.413,9.1a2.18,2.18,0,0,1,1.248-1.248,3.62,3.62,0,0,1,1.221-.227c.694-.031.9-.038,2.658-.038m0-1.185c-1.786,0-2.01.008-2.712.039a4.87,4.87,0,0,0-1.6.306,3.366,3.366,0,0,0-1.923,1.925A4.805,4.805,0,0,0,74,10.27c-.033.7-.039.926-.039,2.712s.007,2.01.039,2.711a4.8,4.8,0,0,0,.306,1.6,3.366,3.366,0,0,0,1.923,1.925,4.869,4.869,0,0,0,1.6.306c.7.031.926.039,2.712.039s2.01-.008,2.712-.039a4.869,4.869,0,0,0,1.6-.306,3.366,3.366,0,0,0,1.923-1.925,4.8,4.8,0,0,0,.306-1.6c.033-.7.039-.925.039-2.711s-.007-2.011-.039-2.712a4.805,4.805,0,0,0-.306-1.6A3.366,3.366,0,0,0,84.85,6.749a4.869,4.869,0,0,0-1.6-.306c-.7-.031-.926-.039-2.712-.039" transform="translate(634.135 5675.274)" fill="#fff"/>
    <path id="Path_2346" data-name="Path 2346" d="M80.189,9.252a3.378,3.378,0,1,0,3.377,3.378,3.378,3.378,0,0,0-3.377-3.378m0,5.57a2.192,2.192,0,1,1,2.192-2.192,2.192,2.192,0,0,1-2.192,2.192" transform="translate(634.486 5675.626)" fill="#fff"/>
    <path id="Path_2347" data-name="Path 2347" d="M83.82,9.22a.789.789,0,1,1-.79-.79.79.79,0,0,1,.79.79" transform="translate(635.156 5675.524)" fill="#fff"/>
  </g>
</svg>
