<svg xmlns="http://www.w3.org/2000/svg" width="27.49" height="27.49" viewBox="0 0 27.49 27.49">
  <g id="Group_18932" data-name="Group 18932" transform="translate(-776.834 -5674.51)">
    <path id="Path_2339" data-name="Path 2339" d="M148.866,27.274h0A13.529,13.529,0,1,1,162.4,13.745,13.529,13.529,0,0,1,148.866,27.274Z" transform="translate(641.713 5674.51)" fill="none" stroke="#fff" stroke-width="0.432"/>
    <rect id="Rectangle_548" data-name="Rectangle 548" width="2.483" height="8.021" transform="translate(784.805 5685.574)" fill="#fff"/>
    <path id="Path_2340" data-name="Path 2340" d="M143.494,9.262a1.48,1.48,0,1,0-1.468-1.481,1.474,1.474,0,0,0,1.468,1.481" transform="translate(642.539 5675.262)" fill="#fff"/>
    <path id="Path_2341" data-name="Path 2341" d="M148.244,13.709c0-1.128.518-1.8,1.511-1.8.915,0,1.353.645,1.353,1.8v4.21h2.471V12.84c0-2.148-1.218-3.186-2.919-3.186a2.793,2.793,0,0,0-2.416,1.325V9.9h-2.383v8.021h2.383Z" transform="translate(643.012 5675.675)" fill="#fff"/>
  </g>
</svg>
