<svg xmlns="http://www.w3.org/2000/svg" width="27.49" height="27.49" viewBox="0 0 27.49 27.49">
  <g id="Group_18929" data-name="Group 18929" transform="translate(-662.979 -5674.51)">
    <path id="Path_2337" data-name="Path 2337" d="M47.525,27.274h0A13.529,13.529,0,1,1,61.054,13.745,13.529,13.529,0,0,1,47.525,27.274Z" transform="translate(629.199 5674.51)" fill="none" stroke="#fff" stroke-width="0.432"/>
    <path id="Path_2338" data-name="Path 2338" d="M40.349,17.331a7.458,7.458,0,0,0,11.474-6.623A5.317,5.317,0,0,0,53.132,9.35a5.224,5.224,0,0,1-1.507.413,2.631,2.631,0,0,0,1.154-1.45,5.26,5.26,0,0,1-1.665.636,2.624,2.624,0,0,0-4.469,2.392A7.44,7.44,0,0,1,41.239,8.6a2.626,2.626,0,0,0,.812,3.5,2.611,2.611,0,0,1-1.189-.328,2.627,2.627,0,0,0,2.1,2.605,2.627,2.627,0,0,1-1.183.044,2.624,2.624,0,0,0,2.449,1.822,5.274,5.274,0,0,1-3.883,1.085" transform="translate(629.982 5675.486)" fill="#fff"/>
  </g>
</svg>
