<svg xmlns="http://www.w3.org/2000/svg" width="27.49" height="27.49" viewBox="0 0 27.49 27.49">
  <g id="Group_18931" data-name="Group 18931" transform="translate(-738.882 -5674.51)">
    <path id="Path_2335" data-name="Path 2335" d="M115.086,27.274h0a13.529,13.529,0,1,1,13.529-13.529A13.529,13.529,0,0,1,115.086,27.274Z" transform="translate(637.541 5674.51)" fill="none" stroke="#fff" stroke-width="0.432"/>
    <path id="Path_2336" data-name="Path 2336" d="M121.612,9.2a1.883,1.883,0,0,0-1.327-1.335,54.578,54.578,0,0,0-11.724,0A1.887,1.887,0,0,0,107.234,9.2a19.777,19.777,0,0,0-.313,3.634,19.793,19.793,0,0,0,.313,3.636,1.889,1.889,0,0,0,1.327,1.335,44.543,44.543,0,0,0,5.862.316,44.519,44.519,0,0,0,5.861-.316,1.885,1.885,0,0,0,1.327-1.335,19.793,19.793,0,0,0,.313-3.636,19.776,19.776,0,0,0-.313-3.634m-8.723,5.866V10.609l3.921,2.23Z" transform="translate(638.203 5675.416)" fill="#fff"/>
  </g>
</svg>
