<svg width="34" height="33" viewBox="0 0 34 33" fill="none" xmlns="http://www.w3.org/2000/svg">
<g clip-path="url(#clip0_1709_311)">
<mask id="mask0_1709_311" style="mask-type:luminance" maskUnits="userSpaceOnUse" x="0" y="0" width="34" height="34">
<path d="M16.772 33.248C26.0349 33.248 33.544 25.8052 33.544 16.624C33.544 7.44282 26.0349 0 16.772 0C7.50908 0 0 7.44282 0 16.624C0 25.8052 7.50908 33.248 16.772 33.248Z" fill="white"/>
</mask>
<g mask="url(#mask0_1709_311)">
<path d="M-16.7422 14.4883L19.1628 -16.6093L50.537 18.977L14.632 50.0746L-16.7422 14.4883Z" fill="url(#paint0_radial_1709_311)"/>
</g>
<path d="M21.1269 23.3537C20.1869 24.1906 19.1112 24.8611 17.9459 25.3367C16.8969 25.7276 15.7853 25.9235 14.6659 25.9147C13.0593 26.0213 11.4719 25.5166 10.2219 24.5017C9.71593 24.049 9.31483 23.4914 9.0466 22.8677C8.77837 22.244 8.64947 21.5693 8.6689 20.8907C8.6595 20.0687 8.86164 19.2581 9.2559 18.5367C9.62306 17.8536 10.1484 17.2683 10.7879 16.8297C11.443 16.3905 12.1655 16.0614 12.9269 15.8557C13.798 15.6515 14.6811 15.5026 15.5709 15.4097C17.3672 15.245 19.1426 14.902 20.8709 14.3857C20.8822 13.9784 20.8876 13.7197 20.8869 13.6097C20.9357 13.1475 20.8859 12.6801 20.7405 12.2386C20.5952 11.7971 20.3578 11.3915 20.0439 11.0487C19.0764 10.3101 17.8718 9.95152 16.6579 10.0407C15.5734 9.95888 14.4902 10.2157 13.5579 10.7757C12.7824 11.448 12.2605 12.3655 12.0789 13.3757L9.1709 12.9757C9.37206 11.8843 9.82279 10.8541 10.4879 9.9657C11.1794 9.14097 12.0896 8.52815 13.1139 8.1977C14.3955 7.76267 15.7427 7.5529 17.0959 7.5777C18.3346 7.53786 19.5706 7.71729 20.7469 8.1077C21.5392 8.36453 22.2511 8.82284 22.8129 9.4377C23.2794 10.0281 23.5964 10.7225 23.7369 11.4617C23.8627 12.37 23.9132 13.2871 23.8879 14.2037V18.1687C23.842 19.9196 23.9055 21.6717 24.0779 23.4147C24.2066 24.1543 24.4606 24.8665 24.8289 25.5207H21.7209C21.3942 24.841 21.1927 24.1079 21.1259 23.3567M20.8779 16.7147C19.3068 17.2736 17.6769 17.6504 16.0199 17.8377C15.1347 17.9326 14.2639 18.1323 13.4259 18.4327C12.9469 18.6303 12.5382 18.9672 12.2529 19.3997C11.9141 19.9301 11.7769 20.5646 11.8662 21.1876C11.9556 21.8106 12.2656 22.3809 12.7399 22.7947C13.492 23.3726 14.4298 23.6547 15.3759 23.5877C16.4426 23.6078 17.496 23.3489 18.4319 22.8367C19.2872 22.3747 19.9751 21.655 20.3979 20.7797C20.7658 19.8333 20.9291 18.8197 20.8769 17.8057L20.8779 16.7147Z" fill="white"/>
</g>
<defs>
<radialGradient id="paint0_radial_1709_311" cx="0" cy="0" r="1" gradientUnits="userSpaceOnUse" gradientTransform="translate(0.932758 -4.43715) rotate(-41.1482) scale(44.7027 44.6484)">
<stop stop-color="#FFCF30"/>
<stop offset="1" stop-color="#C5001B"/>
</radialGradient>
<clipPath id="clip0_1709_311">
<rect width="34" height="33" fill="white"/>
</clipPath>
</defs>
</svg>
