<svg id="Group_49" data-name="Group 49" xmlns="http://www.w3.org/2000/svg" xmlns:xlink="http://www.w3.org/1999/xlink" width="130" height="33.479" viewBox="0 0 130 33.479">
  <defs>
    <clipPath id="clip-path">
      <rect id="Rectangle_481" data-name="Rectangle 481" width="130" height="33.479" fill="none"/>
    </clipPath>
    <clipPath id="clip-path-2">
      <rect id="Rectangle_483" data-name="Rectangle 483" width="33.243" height="33.479" rx="16.621" fill="none"/>
    </clipPath>
    <radialGradient id="radial-gradient" cx="0.54" cy="-0.055" r="0.937" gradientUnits="objectBoundingBox">
      <stop offset="0" stop-color="#ffcf30"/>
      <stop offset="1" stop-color="#c5001b"/>
    </radialGradient>
  </defs>
  <g id="Group_44" data-name="Group 44" transform="translate(0 0)">
    <g id="Group_43" data-name="Group 43" clip-path="url(#clip-path)">
      <path id="Path_239" data-name="Path 239" d="M73.384,21.434a8.218,8.218,0,0,1-2.361,1.472,6.816,6.816,0,0,1-2.434.429,4.732,4.732,0,0,1-3.3-1.049,3.46,3.46,0,0,1-1.153-2.679,3.628,3.628,0,0,1,1.575-3.016,5.359,5.359,0,0,1,1.588-.723,15.672,15.672,0,0,1,1.962-.331,20.191,20.191,0,0,0,3.936-.76q.012-.453.012-.576a2.435,2.435,0,0,0-.625-1.9,3.691,3.691,0,0,0-2.513-.748,3.9,3.9,0,0,0-2.3.545,3.337,3.337,0,0,0-1.1,1.931l-2.158-.294a5.353,5.353,0,0,1,.969-2.238,4.239,4.239,0,0,1,1.949-1.311,8.689,8.689,0,0,1,2.955-.46,7.821,7.821,0,0,1,2.71.392,3.576,3.576,0,0,1,1.533.987,3.476,3.476,0,0,1,.686,1.5,12.416,12.416,0,0,1,.111,2.035v2.943a31.2,31.2,0,0,0,.141,3.893,4.9,4.9,0,0,0,.558,1.563H73.825a4.66,4.66,0,0,1-.441-1.606M73.2,16.5a16.2,16.2,0,0,1-3.6.834,8.309,8.309,0,0,0-1.925.441,1.922,1.922,0,0,0-.871.717,1.952,1.952,0,0,0,.362,2.52,2.877,2.877,0,0,0,1.956.589,4.546,4.546,0,0,0,2.268-.558,3.431,3.431,0,0,0,1.459-1.526,5.331,5.331,0,0,0,.356-2.207Z" transform="translate(-21.656 -3.283)" fill="#fff"/>
      <path id="Path_240" data-name="Path 240" d="M89.287,23.191,84.334,10.17h2.33l2.8,7.8q.453,1.263.834,2.624.294-1.03.821-2.477l2.894-7.945h2.268L91.347,23.191Z" transform="translate(-28.475 -3.434)" fill="#fff"/>
      <path id="Path_241" data-name="Path 241" d="M113.423,21.434a8.217,8.217,0,0,1-2.361,1.472,6.816,6.816,0,0,1-2.434.429,4.732,4.732,0,0,1-3.3-1.049,3.46,3.46,0,0,1-1.153-2.679,3.628,3.628,0,0,1,1.575-3.016,5.36,5.36,0,0,1,1.588-.723,15.673,15.673,0,0,1,1.962-.331,20.191,20.191,0,0,0,3.936-.76q.012-.453.012-.576a2.435,2.435,0,0,0-.625-1.9,3.691,3.691,0,0,0-2.513-.748,3.9,3.9,0,0,0-2.3.545,3.337,3.337,0,0,0-1.1,1.931l-2.158-.294a5.353,5.353,0,0,1,.969-2.238,4.239,4.239,0,0,1,1.949-1.311,8.689,8.689,0,0,1,2.955-.46,7.821,7.821,0,0,1,2.71.392,3.576,3.576,0,0,1,1.533.987,3.476,3.476,0,0,1,.686,1.5,12.416,12.416,0,0,1,.111,2.035v2.943a31.2,31.2,0,0,0,.141,3.893,4.9,4.9,0,0,0,.558,1.563h-2.305a4.66,4.66,0,0,1-.441-1.606m-.184-4.929a16.2,16.2,0,0,1-3.6.834,8.309,8.309,0,0,0-1.925.441,1.922,1.922,0,0,0-.871.717,1.953,1.953,0,0,0,.362,2.52,2.878,2.878,0,0,0,1.956.589,4.546,4.546,0,0,0,2.268-.558,3.431,3.431,0,0,0,1.459-1.526,5.332,5.332,0,0,0,.356-2.207Z" transform="translate(-35.175 -3.283)" fill="#fff"/>
      <path id="Path_242" data-name="Path 242" d="M126.39,23.04V10.02h1.986v1.851a4.679,4.679,0,0,1,4.144-2.146,5.431,5.431,0,0,1,2.164.423,3.406,3.406,0,0,1,1.478,1.109,4.273,4.273,0,0,1,.687,1.631,12.67,12.67,0,0,1,.123,2.146V23.04h-2.207V15.12a5.949,5.949,0,0,0-.258-2.017,2.122,2.122,0,0,0-.913-1.066,2.9,2.9,0,0,0-1.539-.4,3.577,3.577,0,0,0-2.433.895q-1.024.9-1.024,3.4V23.04Z" transform="translate(-42.674 -3.283)" fill="#fff"/>
      <path id="Path_243" data-name="Path 243" d="M151.674,19.572l.319,1.949a8.206,8.206,0,0,1-1.667.2,3.773,3.773,0,0,1-1.864-.38,2.129,2.129,0,0,1-.932-1,7.911,7.911,0,0,1-.27-2.606V10.241h-1.618V8.525h1.618V5.3h2.2V8.525h2.219v1.716h-2.219v7.614a3.856,3.856,0,0,0,.116,1.214.92.92,0,0,0,.38.429,1.472,1.472,0,0,0,.754.159,7.212,7.212,0,0,0,.968-.085" transform="translate(-49.175 -1.789)" fill="#fff"/>
      <path id="Path_244" data-name="Path 244" d="M166.123,21.434a8.227,8.227,0,0,1-2.361,1.472,6.816,6.816,0,0,1-2.434.429,4.732,4.732,0,0,1-3.3-1.049,3.458,3.458,0,0,1-1.152-2.679,3.558,3.558,0,0,1,.435-1.747,3.6,3.6,0,0,1,1.14-1.268,5.359,5.359,0,0,1,1.588-.723A15.672,15.672,0,0,1,162,15.537a20.192,20.192,0,0,0,3.936-.76q.012-.453.012-.576a2.435,2.435,0,0,0-.625-1.9,3.691,3.691,0,0,0-2.513-.748,3.9,3.9,0,0,0-2.3.545,3.337,3.337,0,0,0-1.1,1.931l-2.158-.294a5.353,5.353,0,0,1,.969-2.238,4.239,4.239,0,0,1,1.949-1.311,8.689,8.689,0,0,1,2.955-.46,7.821,7.821,0,0,1,2.71.392,3.576,3.576,0,0,1,1.533.987,3.476,3.476,0,0,1,.686,1.5,12.416,12.416,0,0,1,.111,2.035v2.943a31.2,31.2,0,0,0,.141,3.893,4.882,4.882,0,0,0,.558,1.563h-2.305a4.66,4.66,0,0,1-.441-1.606m-.184-4.929a16.2,16.2,0,0,1-3.6.834,8.309,8.309,0,0,0-1.925.441,1.922,1.922,0,0,0-.871.717,1.952,1.952,0,0,0,.362,2.52,2.877,2.877,0,0,0,1.956.589,4.547,4.547,0,0,0,2.268-.558,3.432,3.432,0,0,0,1.459-1.526,5.332,5.332,0,0,0,.356-2.207Z" transform="translate(-52.968 -3.283)" fill="#fff"/>
      <path id="Path_245" data-name="Path 245" d="M177.85,16.529q0-3.616,2.01-5.358a6.061,6.061,0,0,1,4.1-1.447,5.843,5.843,0,0,1,4.389,1.759,6.694,6.694,0,0,1,1.7,4.861A8.614,8.614,0,0,1,189.3,20.3a5.342,5.342,0,0,1-2.2,2.237,6.39,6.39,0,0,1-3.145.8,5.852,5.852,0,0,1-4.42-1.754,7,7,0,0,1-1.686-5.051m2.269,0a5.549,5.549,0,0,0,1.09,3.746,3.635,3.635,0,0,0,5.482-.006,5.683,5.683,0,0,0,1.091-3.813,5.373,5.373,0,0,0-1.1-3.66,3.639,3.639,0,0,0-5.474-.007,5.527,5.527,0,0,0-1.09,3.74" transform="translate(-60.049 -3.283)" fill="#fff"/>
      <path id="Path_246" data-name="Path 246" d="M68.773,36.83V37.4h-1.8v4.929h-.591V37.4h-1.8V36.83Z" transform="translate(-21.802 -12.435)" fill="#fff"/>
      <path id="Path_247" data-name="Path 247" d="M76.152,36.83h3.07V37.4H76.738v1.71h2.216v.568H76.738v2.089h2.484v.563h-3.07Z" transform="translate(-25.712 -12.435)" fill="#fff"/>
      <path id="Path_248" data-name="Path 248" d="M88.242,42.364a2.673,2.673,0,0,1-2.373-1.4,3.031,3.031,0,0,1-.148-2.549,2.771,2.771,0,0,1,.577-.9,2.663,2.663,0,0,1,.87-.59,2.708,2.708,0,0,1,1.073-.217,2.629,2.629,0,0,1,1.614.523,2.129,2.129,0,0,1,.858,1.336h-.651a1.648,1.648,0,0,0-.665-.929,1.956,1.956,0,0,0-1.156-.358,2.041,2.041,0,0,0-1.073.293,2.1,2.1,0,0,0-.767.809,2.349,2.349,0,0,0-.28,1.137,2.4,2.4,0,0,0,.28,1.15,2.12,2.12,0,0,0,.767.821,2.016,2.016,0,0,0,1.073.3,1.925,1.925,0,0,0,1.175-.376,1.672,1.672,0,0,0,.653-.982h.66a2.291,2.291,0,0,1-.868,1.394,2.573,2.573,0,0,1-1.619.535" transform="translate(-28.871 -12.396)" fill="#fff"/>
      <path id="Path_249" data-name="Path 249" d="M102.545,36.83h.6v5.5h-.6V39.751H99.451v2.575h-.586v-5.5h.586v2.357h3.093Z" transform="translate(-33.381 -12.435)" fill="#fff"/>
      <path id="Path_250" data-name="Path 250" d="M111.139,36.83h.556l3.078,4.411V36.83h.6v5.5h-.552l-3.093-4.4v4.4h-.586Z" transform="translate(-37.525 -12.435)" fill="#fff"/>
      <path id="Path_251" data-name="Path 251" d="M124.674,36.931a2.862,2.862,0,0,1,2.184,0,2.694,2.694,0,0,1,.882.59,2.751,2.751,0,0,1,.582.9,3,3,0,0,1-.15,2.549,2.685,2.685,0,0,1-1,1.025,2.835,2.835,0,0,1-2.813,0,2.68,2.68,0,0,1-1-1.025,3,3,0,0,1-.15-2.549,2.753,2.753,0,0,1,.583-.9,2.674,2.674,0,0,1,.881-.59m1.942.527a2.18,2.18,0,0,0-1.7,0,2.1,2.1,0,0,0-.688.47,2.163,2.163,0,0,0-.454.713,2.448,2.448,0,0,0,.117,2.033,2.114,2.114,0,0,0,.779.82,2.149,2.149,0,0,0,2.188,0,2.122,2.122,0,0,0,.78-.82,2.448,2.448,0,0,0,.117-2.033,2.185,2.185,0,0,0-.454-.713,2.1,2.1,0,0,0-.688-.47" transform="translate(-41.528 -12.396)" fill="#fff"/>
      <path id="Path_252" data-name="Path 252" d="M136.838,36.83h.586v4.933H140.2v.563h-3.365Z" transform="translate(-46.202 -12.435)" fill="#fff"/>
      <path id="Path_253" data-name="Path 253" d="M148.007,36.931a2.862,2.862,0,0,1,2.184,0,2.684,2.684,0,0,1,.882.59,2.752,2.752,0,0,1,.583.9,3,3,0,0,1-.15,2.549,2.685,2.685,0,0,1-1,1.025,2.836,2.836,0,0,1-2.814,0,2.69,2.69,0,0,1-1-1.025,2.907,2.907,0,0,1-.364-1.441,2.867,2.867,0,0,1,.215-1.107,2.751,2.751,0,0,1,.582-.9,2.684,2.684,0,0,1,.882-.59m1.941.527a2.157,2.157,0,0,0-2.386.47,2.175,2.175,0,0,0-.454.713,2.451,2.451,0,0,0,.117,2.033,2.122,2.122,0,0,0,.78.82,2.149,2.149,0,0,0,2.188,0,2.122,2.122,0,0,0,.78-.82,2.451,2.451,0,0,0,.117-2.033,2.173,2.173,0,0,0-.454-.713,2.113,2.113,0,0,0-.688-.47" transform="translate(-49.406 -12.396)" fill="#fff"/>
      <path id="Path_254" data-name="Path 254" d="M165.143,39.367a2.593,2.593,0,0,1,.023.376,2.672,2.672,0,0,1-.341,1.341,2.452,2.452,0,0,1-.939.941,2.636,2.636,0,0,1-1.326.339,2.686,2.686,0,0,1-2.388-1.4,2.926,2.926,0,0,1-.36-1.441,2.881,2.881,0,0,1,.215-1.107,2.777,2.777,0,0,1,.579-.895,2.65,2.65,0,0,1,.874-.59,2.735,2.735,0,0,1,1.081-.217,2.8,2.8,0,0,1,1.976.843,2.057,2.057,0,0,1,.5.843h-.667a1.594,1.594,0,0,0-.7-.8,2.1,2.1,0,0,0-1.109-.318,2.085,2.085,0,0,0-1.853,1.1,2.324,2.324,0,0,0-.281,1.136,2.372,2.372,0,0,0,.281,1.152,2.112,2.112,0,0,0,1.884,1.117,1.919,1.919,0,0,0,1.358-.523,1.956,1.956,0,0,0,.627-1.32h-1.89v-.583Z" transform="translate(-53.959 -12.396)" fill="#fff"/>
      <rect id="Rectangle_480" data-name="Rectangle 480" width="0.586" height="5.496" transform="translate(114.833 24.395)" fill="#fff"/>
      <path id="Path_255" data-name="Path 255" d="M180.088,36.83h3.07V37.4h-2.484v1.71h2.216v.568h-2.216v2.089h2.484v.563h-3.07Z" transform="translate(-60.805 -12.435)" fill="#fff"/>
      <path id="Path_256" data-name="Path 256" d="M191.937,42.364a2.044,2.044,0,0,1-1.42-.5,1.638,1.638,0,0,1-.562-1.274h.583a1.111,1.111,0,0,0,.395.88,1.477,1.477,0,0,0,1,.343,1.542,1.542,0,0,0,.95-.282.866.866,0,0,0,.376-.723.88.88,0,0,0-.09-.407.761.761,0,0,0-.245-.283,2.183,2.183,0,0,0-.36-.2,2.523,2.523,0,0,0-.437-.144c-.154-.036-.314-.076-.477-.123l-.478-.136a2.1,2.1,0,0,1-.436-.182,1.816,1.816,0,0,1-.36-.261,1,1,0,0,1-.246-.376,1.428,1.428,0,0,1-.09-.521,1.29,1.29,0,0,1,.512-1.049,2,2,0,0,1,1.294-.412,1.9,1.9,0,0,1,1.334.454,1.484,1.484,0,0,1,.494,1.141h-.6a.988.988,0,0,0-.362-.742,1.319,1.319,0,0,0-.88-.289,1.43,1.43,0,0,0-.872.249.773.773,0,0,0-.335.648.707.707,0,0,0,.111.4.8.8,0,0,0,.3.268,2.418,2.418,0,0,0,.427.174c.161.05.331.1.51.138s.357.087.535.136a2.817,2.817,0,0,1,.508.192,1.934,1.934,0,0,1,.427.281,1.149,1.149,0,0,1,.3.429,1.588,1.588,0,0,1,.111.611,1.381,1.381,0,0,1-.542,1.119,2.105,2.105,0,0,1-1.37.44" transform="translate(-64.136 -12.396)" fill="#fff"/>
    </g>
  </g>
  <g id="Group_46" data-name="Group 46" transform="translate(0 0)">
    <g id="Group_45" data-name="Group 45" transform="translate(0 0)" clip-path="url(#clip-path-2)">
      <path id="Path_258" data-name="Path 258" d="M0,0,47.049-.165l-.165,47.094-47.049.165Z" transform="matrix(0.753, -0.658, 0.658, 0.753, -16.469, 14.481)" fill="url(#radial-gradient)"/>
    </g>
  </g>
  <g id="Group_48" data-name="Group 48" transform="translate(0 0)">
    <g id="Group_47" data-name="Group 47" clip-path="url(#clip-path)">
      <path id="Path_257" data-name="Path 257" d="M25.532,27.207a11.083,11.083,0,0,1-3.179,1.981,9.181,9.181,0,0,1-3.278.578,6.375,6.375,0,0,1-4.442-1.411,4.664,4.664,0,0,1-1.552-3.609,4.785,4.785,0,0,1,.587-2.353,4.848,4.848,0,0,1,1.535-1.71,7.218,7.218,0,0,1,2.139-.974,21.083,21.083,0,0,1,2.642-.446,27.2,27.2,0,0,0,5.3-1.024c.011-.407.017-.666.017-.776a3.277,3.277,0,0,0-.843-2.559A4.975,4.975,0,0,0,21.075,13.9a5.253,5.253,0,0,0-3.1.735,4.5,4.5,0,0,0-1.478,2.6l-2.906-.4a7.2,7.2,0,0,1,1.3-3.013,5.715,5.715,0,0,1,2.625-1.767,11.718,11.718,0,0,1,3.979-.619,10.516,10.516,0,0,1,3.65.529,4.808,4.808,0,0,1,2.065,1.329,4.683,4.683,0,0,1,.925,2.022,16.811,16.811,0,0,1,.148,2.742v3.963a42.218,42.218,0,0,0,.19,5.243,6.609,6.609,0,0,0,.752,2.1h-3.1a6.279,6.279,0,0,1-.6-2.163m-.247-6.639a21.8,21.8,0,0,1-4.855,1.123,11.208,11.208,0,0,0-2.593.595,2.581,2.581,0,0,0-1.172.966,2.627,2.627,0,0,0,.486,3.393,3.876,3.876,0,0,0,2.635.793,6.128,6.128,0,0,0,3.055-.751,4.617,4.617,0,0,0,1.964-2.055,7.17,7.17,0,0,0,.48-2.973Z" transform="translate(-4.417 -3.861)" fill="#fff"/>
    </g>
  </g>
</svg>
