<svg id="Group_37" data-name="Group 37" xmlns="http://www.w3.org/2000/svg" xmlns:xlink="http://www.w3.org/1999/xlink" width="130" height="33.496" viewBox="0 0 130 33.496">
  <defs>
    <clipPath id="clip-path">
      <ellipse id="Ellipse_13" data-name="Ellipse 13" cx="16.772" cy="16.624" rx="16.772" ry="16.624" fill="none"/>
    </clipPath>
    <radialGradient id="radial-gradient" cx="0.54" cy="-0.055" r="0.937" gradientUnits="objectBoundingBox">
      <stop offset="0" stop-color="#ffcf30"/>
      <stop offset="1" stop-color="#c5001b"/>
    </radialGradient>
    <clipPath id="clip-path-2">
      <rect id="Rectangle_468" data-name="Rectangle 468" width="130" height="33.496" fill="none"/>
    </clipPath>
  </defs>
  <g id="Group_34" data-name="Group 34">
    <g id="Group_33" data-name="Group 33" clip-path="url(#clip-path)">
      <path id="Path_218" data-name="Path 218" d="M0,0,47.5.209l.209,47.442-47.5-.209Z" transform="matrix(0.753, -0.658, 0.658, 0.753, -16.742, 14.488)" fill="url(#radial-gradient)"/>
    </g>
  </g>
  <g id="Group_36" data-name="Group 36">
    <g id="Group_35" data-name="Group 35" clip-path="url(#clip-path-2)">
      <path id="Path_199" data-name="Path 199" d="M38.339,38.4a11.081,11.081,0,0,1-3.181,1.983,9.188,9.188,0,0,1-3.28.578,6.38,6.38,0,0,1-4.444-1.413,4.666,4.666,0,0,1-1.553-3.611,4.794,4.794,0,0,1,.587-2.354A4.86,4.86,0,0,1,28,31.876a7.225,7.225,0,0,1,2.139-.974,21.25,21.25,0,0,1,2.644-.446,27.186,27.186,0,0,0,5.3-1.024q.017-.611.016-.776a3.282,3.282,0,0,0-.843-2.561,4.979,4.979,0,0,0-3.386-1.008,5.253,5.253,0,0,0-3.1.735,4.493,4.493,0,0,0-1.479,2.6l-2.908-.4A7.2,7.2,0,0,1,27.7,25.012a5.718,5.718,0,0,1,2.626-1.768,11.72,11.72,0,0,1,3.982-.62,10.517,10.517,0,0,1,3.651.53,4.806,4.806,0,0,1,2.066,1.33,4.673,4.673,0,0,1,.924,2.024A16.643,16.643,0,0,1,41.1,29.25v3.965a42.079,42.079,0,0,0,.19,5.246,6.6,6.6,0,0,0,.751,2.106H38.933a6.279,6.279,0,0,1-.595-2.164m-.248-6.642a21.8,21.8,0,0,1-4.858,1.123,11.237,11.237,0,0,0-2.594.595,2.587,2.587,0,0,0-1.173.967,2.628,2.628,0,0,0,.487,3.395,3.877,3.877,0,0,0,2.636.793,6.125,6.125,0,0,0,3.056-.751,4.624,4.624,0,0,0,1.966-2.057,7.188,7.188,0,0,0,.479-2.974Z" transform="translate(-17.212 -15.046)" fill="#fff"/>
      <path id="Path_200" data-name="Path 200" d="M135.944,30.956a8.213,8.213,0,0,1-2.361,1.472,6.826,6.826,0,0,1-2.435.429,4.736,4.736,0,0,1-3.3-1.049,3.461,3.461,0,0,1-1.153-2.68,3.564,3.564,0,0,1,.435-1.748,3.608,3.608,0,0,1,1.141-1.27,5.364,5.364,0,0,1,1.589-.724,15.715,15.715,0,0,1,1.963-.331,20.183,20.183,0,0,0,3.938-.761q.012-.454.012-.576a2.437,2.437,0,0,0-.626-1.9,3.7,3.7,0,0,0-2.515-.748,3.9,3.9,0,0,0-2.3.546,3.335,3.335,0,0,0-1.1,1.932l-2.159-.294a5.35,5.35,0,0,1,.969-2.239,4.246,4.246,0,0,1,1.95-1.313,8.7,8.7,0,0,1,2.956-.46,7.827,7.827,0,0,1,2.711.393,3.576,3.576,0,0,1,1.533.987,3.478,3.478,0,0,1,.687,1.5,12.47,12.47,0,0,1,.11,2.037V27.1A31.146,31.146,0,0,0,138.134,31a4.905,4.905,0,0,0,.558,1.564h-2.306a4.682,4.682,0,0,1-.442-1.607m-.184-4.931a16.186,16.186,0,0,1-3.607.834,8.352,8.352,0,0,0-1.926.442,1.92,1.92,0,0,0-.871.717,1.953,1.953,0,0,0,.362,2.521,2.877,2.877,0,0,0,1.957.589,4.554,4.554,0,0,0,2.269-.558,3.439,3.439,0,0,0,1.46-1.527,5.333,5.333,0,0,0,.356-2.208Z" transform="translate(-84.257 -12.796)" fill="#020f36"/>
      <path id="Path_201" data-name="Path 201" d="M171.607,33.147l-4.956-13.028h2.331l2.8,7.8q.454,1.264.834,2.625.294-1.031.822-2.478l2.895-7.949h2.27l-4.931,13.028Z" transform="translate(-110.83 -13.38)" fill="#020f36"/>
      <path id="Path_202" data-name="Path 202" d="M215.159,30.956a8.209,8.209,0,0,1-2.361,1.472,6.826,6.826,0,0,1-2.435.429,4.736,4.736,0,0,1-3.3-1.049,3.461,3.461,0,0,1-1.153-2.68,3.564,3.564,0,0,1,.435-1.748,3.608,3.608,0,0,1,1.141-1.27,5.364,5.364,0,0,1,1.589-.724,15.716,15.716,0,0,1,1.963-.331,20.184,20.184,0,0,0,3.938-.761q.012-.454.012-.576a2.437,2.437,0,0,0-.626-1.9,3.7,3.7,0,0,0-2.515-.748,3.9,3.9,0,0,0-2.3.546,3.336,3.336,0,0,0-1.1,1.932l-2.159-.294a5.351,5.351,0,0,1,.969-2.239,4.246,4.246,0,0,1,1.95-1.313,8.7,8.7,0,0,1,2.956-.46,7.827,7.827,0,0,1,2.711.393,3.576,3.576,0,0,1,1.533.987,3.478,3.478,0,0,1,.687,1.5,12.471,12.471,0,0,1,.11,2.037V27.1A31.143,31.143,0,0,0,217.349,31a4.9,4.9,0,0,0,.558,1.564H215.6a4.682,4.682,0,0,1-.442-1.607m-.184-4.931a16.185,16.185,0,0,1-3.607.834,8.352,8.352,0,0,0-1.926.442,1.92,1.92,0,0,0-.871.717,1.953,1.953,0,0,0,.362,2.521,2.877,2.877,0,0,0,1.957.589,4.553,4.553,0,0,0,2.269-.558,3.439,3.439,0,0,0,1.46-1.527,5.333,5.333,0,0,0,.356-2.208Z" transform="translate(-136.938 -12.796)" fill="#020f36"/>
      <path id="Path_203" data-name="Path 203" d="M249.856,32.563V19.535h1.987v1.853a4.683,4.683,0,0,1,4.146-2.147,5.429,5.429,0,0,1,2.165.423,3.4,3.4,0,0,1,1.478,1.11,4.266,4.266,0,0,1,.687,1.632,12.652,12.652,0,0,1,.123,2.147v8.01h-2.208V24.638a5.949,5.949,0,0,0-.258-2.018,2.122,2.122,0,0,0-.914-1.067,2.906,2.906,0,0,0-1.539-.4,3.579,3.579,0,0,0-2.435.9q-1.024.9-1.024,3.4v7.115Z" transform="translate(-166.164 -12.796)" fill="#020f36"/>
      <path id="Path_204" data-name="Path 204" d="M293.979,24.765l.319,1.95a8.2,8.2,0,0,1-1.668.2,3.775,3.775,0,0,1-1.864-.381,2.126,2.126,0,0,1-.932-1,7.9,7.9,0,0,1-.27-2.607v-7.5h-1.619V13.713h1.619V10.487h2.2v3.227h2.22V15.43h-2.22v7.618a3.843,3.843,0,0,0,.117,1.214.916.916,0,0,0,.38.429,1.465,1.465,0,0,0,.754.159,7.175,7.175,0,0,0,.969-.086" transform="translate(-191.494 -6.974)" fill="#020f36"/>
      <path id="Path_205" data-name="Path 205" d="M319.422,30.956a8.218,8.218,0,0,1-2.362,1.472,6.827,6.827,0,0,1-2.435.429,4.737,4.737,0,0,1-3.3-1.049,3.462,3.462,0,0,1-1.153-2.68,3.564,3.564,0,0,1,.435-1.748,3.6,3.6,0,0,1,1.141-1.27,5.36,5.36,0,0,1,1.589-.724,15.717,15.717,0,0,1,1.963-.331,20.188,20.188,0,0,0,3.938-.761q.012-.454.012-.576a2.437,2.437,0,0,0-.626-1.9,3.7,3.7,0,0,0-2.515-.748,3.9,3.9,0,0,0-2.3.546,3.335,3.335,0,0,0-1.1,1.932l-2.159-.294a5.353,5.353,0,0,1,.969-2.239,4.249,4.249,0,0,1,1.95-1.313,8.7,8.7,0,0,1,2.956-.46,7.83,7.83,0,0,1,2.711.393,3.576,3.576,0,0,1,1.533.987,3.481,3.481,0,0,1,.687,1.5,12.465,12.465,0,0,1,.11,2.037V27.1A31.243,31.243,0,0,0,321.612,31a4.907,4.907,0,0,0,.558,1.564h-2.306a4.674,4.674,0,0,1-.442-1.607m-.184-4.931a16.186,16.186,0,0,1-3.607.834,8.352,8.352,0,0,0-1.926.442,1.92,1.92,0,0,0-.871.717,1.953,1.953,0,0,0,.362,2.521,2.877,2.877,0,0,0,1.957.589,4.554,4.554,0,0,0,2.269-.558,3.439,3.439,0,0,0,1.46-1.527,5.333,5.333,0,0,0,.356-2.208Z" transform="translate(-206.277 -12.796)" fill="#020f36"/>
      <path id="Path_206" data-name="Path 206" d="M351.667,26.049q0-3.619,2.012-5.361a6.061,6.061,0,0,1,4.1-1.447A5.845,5.845,0,0,1,362.167,21a6.7,6.7,0,0,1,1.705,4.864,8.621,8.621,0,0,1-.754,3.956,5.341,5.341,0,0,1-2.2,2.239,6.393,6.393,0,0,1-3.147.8,5.855,5.855,0,0,1-4.422-1.755,7.006,7.006,0,0,1-1.687-5.054m2.269,0a5.548,5.548,0,0,0,1.092,3.748,3.635,3.635,0,0,0,5.483-.006,5.68,5.68,0,0,0,1.092-3.815,5.382,5.382,0,0,0-1.1-3.661,3.64,3.64,0,0,0-5.477-.006,5.524,5.524,0,0,0-1.092,3.742" transform="translate(-233.873 -12.796)" fill="#020f36"/>
      <path id="Path_207" data-name="Path 207" d="M131.757,72.867v.567h-1.806v4.932h-.591V73.435h-1.806v-.567Z" transform="translate(-84.828 -48.46)" fill="#020f36"/>
      <path id="Path_208" data-name="Path 208" d="M150.463,72.867h3.072v.567H151.05v1.71h2.216v.568H151.05V77.8h2.485v.564h-3.072Z" transform="translate(-100.064 -48.46)" fill="#020f36"/>
      <path id="Path_209" data-name="Path 209" d="M171.71,78.29a2.657,2.657,0,0,1-1.386-.374,2.684,2.684,0,0,1-.987-1.026,3.034,3.034,0,0,1-.148-2.55,2.759,2.759,0,0,1,.577-.9,2.663,2.663,0,0,1,.87-.591,2.7,2.7,0,0,1,1.074-.217,2.629,2.629,0,0,1,1.614.524,2.129,2.129,0,0,1,.859,1.336h-.652a1.649,1.649,0,0,0-.665-.93,1.958,1.958,0,0,0-1.156-.358,2.045,2.045,0,0,0-1.074.293,2.089,2.089,0,0,0-.767.809,2.342,2.342,0,0,0-.28,1.137,2.39,2.39,0,0,0,.28,1.15,2.118,2.118,0,0,0,.767.821,2.014,2.014,0,0,0,1.074.3,1.924,1.924,0,0,0,1.175-.376,1.674,1.674,0,0,0,.654-.982h.66a2.29,2.29,0,0,1-.869,1.394,2.573,2.573,0,0,1-1.62.535" transform="translate(-112.376 -48.307)" fill="#020f36"/>
      <path id="Path_210" data-name="Path 210" d="M199.081,72.867h.6v5.5h-.6V75.789h-3.095v2.577H195.4v-5.5h.587v2.358h3.095Z" transform="translate(-129.948 -48.46)" fill="#020f36"/>
      <path id="Path_211" data-name="Path 211" d="M219.683,72.867h.556l3.079,4.414V72.867h.6v5.5h-.552l-3.095-4.406v4.406h-.587Z" transform="translate(-146.098 -48.46)" fill="#020f36"/>
      <path id="Path_212" data-name="Path 212" d="M244.82,72.855a2.864,2.864,0,0,1,2.186,0,2.686,2.686,0,0,1,.882.591,2.75,2.75,0,0,1,.583.9,3,3,0,0,1-.149,2.55,2.688,2.688,0,0,1-1,1.026,2.836,2.836,0,0,1-2.815,0,2.686,2.686,0,0,1-1-1.026,3.006,3.006,0,0,1-.15-2.55,2.75,2.75,0,0,1,.583-.9,2.686,2.686,0,0,1,.882-.591m1.942.527a2.159,2.159,0,0,0-2.387.47,2.182,2.182,0,0,0-.454.713,2.453,2.453,0,0,0,.117,2.034,2.12,2.12,0,0,0,.78.821,2.153,2.153,0,0,0,2.19,0,2.127,2.127,0,0,0,.78-.821,2.456,2.456,0,0,0,.117-2.034,2.183,2.183,0,0,0-.455-.713,2.1,2.1,0,0,0-.688-.47" transform="translate(-161.699 -48.307)" fill="#020f36"/>
      <path id="Path_213" data-name="Path 213" d="M270.526,72.867h.587V77.8h2.78v.564h-3.367Z" transform="translate(-179.911 -48.46)" fill="#020f36"/>
      <path id="Path_214" data-name="Path 214" d="M290.982,72.855a2.864,2.864,0,0,1,2.186,0,2.686,2.686,0,0,1,.882.591,2.75,2.75,0,0,1,.583.9,3.007,3.007,0,0,1-.149,2.55,2.691,2.691,0,0,1-1,1.026,2.837,2.837,0,0,1-2.815,0,2.689,2.689,0,0,1-1-1.026,3,3,0,0,1-.149-2.55,2.75,2.75,0,0,1,.583-.9,2.686,2.686,0,0,1,.882-.591m1.942.527a2.159,2.159,0,0,0-2.387.47,2.188,2.188,0,0,0-.455.713A2.456,2.456,0,0,0,290.2,76.6a2.124,2.124,0,0,0,.78.821,2.154,2.154,0,0,0,2.19,0,2.124,2.124,0,0,0,.78-.821,2.455,2.455,0,0,0,.117-2.034,2.183,2.183,0,0,0-.455-.713,2.1,2.1,0,0,0-.688-.47" transform="translate(-192.397 -48.307)" fill="#020f36"/>
      <path id="Path_215" data-name="Path 215" d="M321.312,75.292a2.572,2.572,0,0,1,.023.376,2.674,2.674,0,0,1-.341,1.342,2.454,2.454,0,0,1-.94.942,2.643,2.643,0,0,1-1.327.339,2.688,2.688,0,0,1-2.389-1.4,2.93,2.93,0,0,1-.36-1.442,2.886,2.886,0,0,1,.215-1.108,2.8,2.8,0,0,1,.579-.9,2.651,2.651,0,0,1,.874-.59,2.734,2.734,0,0,1,1.082-.217,2.81,2.81,0,0,1,1.977.844,2.061,2.061,0,0,1,.5.844h-.667a1.6,1.6,0,0,0-.7-.8,2.1,2.1,0,0,0-1.11-.318,2.071,2.071,0,0,0-1.082.293,2.094,2.094,0,0,0-.773.809,2.332,2.332,0,0,0-.282,1.137,2.377,2.377,0,0,0,.282,1.152,2.114,2.114,0,0,0,1.885,1.118,1.922,1.922,0,0,0,1.36-.524,1.959,1.959,0,0,0,.627-1.321h-1.891v-.583Z" transform="translate(-210.138 -48.307)" fill="#020f36"/>
      <rect id="Rectangle_467" data-name="Rectangle 467" width="0.587" height="5.499" transform="translate(114.825 24.408)" fill="#020f36"/>
      <path id="Path_216" data-name="Path 216" d="M356.1,72.867h3.072v.567h-2.485v1.71H358.9v.568h-2.216V77.8h2.485v.564H356.1Z" transform="translate(-236.817 -48.46)" fill="#020f36"/>
      <path id="Path_217" data-name="Path 217" d="M377.6,78.29a2.048,2.048,0,0,1-1.421-.5,1.64,1.64,0,0,1-.562-1.275h.583a1.113,1.113,0,0,0,.395.88,1.475,1.475,0,0,0,1,.343,1.541,1.541,0,0,0,.951-.282.867.867,0,0,0,.376-.723.883.883,0,0,0-.09-.406.757.757,0,0,0-.245-.284,2.178,2.178,0,0,0-.361-.2,2.477,2.477,0,0,0-.437-.144q-.232-.054-.477-.123l-.478-.136a2.048,2.048,0,0,1-.437-.182,1.838,1.838,0,0,1-.36-.261,1.015,1.015,0,0,1-.246-.376,1.424,1.424,0,0,1-.09-.522,1.29,1.29,0,0,1,.512-1.049,2,2,0,0,1,1.294-.412,1.9,1.9,0,0,1,1.334.454,1.485,1.485,0,0,1,.495,1.141h-.6a.985.985,0,0,0-.362-.742,1.318,1.318,0,0,0-.88-.289,1.427,1.427,0,0,0-.873.249.772.772,0,0,0-.336.648.708.708,0,0,0,.111.4.808.808,0,0,0,.3.269,2.427,2.427,0,0,0,.427.175q.242.075.51.138t.535.136a2.839,2.839,0,0,1,.508.192,1.946,1.946,0,0,1,.427.282,1.147,1.147,0,0,1,.3.43,1.578,1.578,0,0,1,.111.611,1.381,1.381,0,0,1-.543,1.12,2.1,2.1,0,0,1-1.371.441" transform="translate(-249.799 -48.307)" fill="#020f36"/>
    </g>
  </g>
</svg>
